<?xml version="1.0" encoding="iso-8859-1"?>
<!-- Generator: Adobe Illustrator 19.0.0, SVG Export Plug-In . SVG Version: 6.00 Build 0)  -->
<svg version="1.1" id="Capa_1" xmlns="http://www.w3.org/2000/svg" xmlns:xlink="http://www.w3.org/1999/xlink" x="0px" y="0px"
	 viewBox="0 0 512 512" style="enable-background:new 0 0 512 512;" xml:space="preserve">
<g>
	<g>
		<path d="M467,0H45C20.187,0,0,20.187,0,45v423c0,24.673,19.767,44,45,44h422c25.233,0,45-19.327,45-44V45
			C512,20.187,491.813,0,467,0z M482,468c0,7.981-6.448,14-15,14H45c-8.551,0-15-6.019-15-14V45c0-8.271,6.729-15,15-15h422
			c8.271,0,15,6.729,15,15V468z"/>
	</g>
</g>
<g>
	<g>
		<path d="M421,121c-8.284,0-15,6.716-15,15v80.12c-9.531-3.369-19.626-5.12-30-5.12c-49.626,0-90,40.374-90,90
			c0,49.626,40.374,90,90,90c11.424,0,22.512-2.117,32.878-6.191C411.605,388.555,416.012,391,421,391c8.284,0,15-6.716,15-15V136
			C436,127.716,429.284,121,421,121z M406,352.98c-9.077,5.265-19.319,8.021-30,8.021C342.916,361,316,334.084,316,301
			s26.916-60,60-60c10.681,0,20.923,2.756,30,8.021V352.98z"/>
	</g>
</g>
<g>
	<g>
		<path d="M198.689,256l70.031-112.05c4.391-7.025,2.255-16.279-4.77-20.67c-7.026-4.391-16.279-2.255-20.67,4.77L181,227.698
			l-62.28-99.648c-4.391-7.025-13.645-9.16-20.67-4.77c-7.025,4.391-9.161,13.645-4.77,20.67L163.311,256L93.28,368.05
			c-4.391,7.025-2.255,16.279,4.77,20.67c7.012,4.382,16.271,2.269,20.67-4.77L181,284.302l62.28,99.648
			c4.405,7.048,13.666,9.147,20.67,4.77c7.025-4.391,9.161-13.645,4.77-20.67L198.689,256z"/>
	</g>
</g>
<g>
</g>
<g>
</g>
<g>
</g>
<g>
</g>
<g>
</g>
<g>
</g>
<g>
</g>
<g>
</g>
<g>
</g>
<g>
</g>
<g>
</g>
<g>
</g>
<g>
</g>
<g>
</g>
<g>
</g>
</svg>
